<svg xmlns="http://www.w3.org/2000/svg" width="24" height="24" viewBox="0 0 24 24" fill="none" stroke="currentColor" stroke-width="1.6" stroke-linecap="round" stroke-linejoin="round"><circle cx="12" cy="12" r="2.7"/><path d="M14.8 4a8.8 8.8 0 0 1 3.2 1.8l-.3 1.3a3.5 3.5 0 0 0 2 3.5l1.2.4a9 9 0 0 1 0 2l-1.2.4a3.5 3.5 0 0 0-2 3.5l.3 1.3a8.8 8.8 0 0 1-3.2 1.8l-1-.9a3.5 3.5 0 0 0-4 0l-1 .9a8.8 8.8 0 0 1-3.2-1.8l.3-1.3a3.5 3.5 0 0 0-2-3.5L2.7 13a9 9 0 0 1 0-2l1.2-.4a3.5 3.5 0 0 0 2-3.5l-.3-1.3A8.8 8.8 0 0 1 8.8 4l1 .9a3.5 3.5 0 0 0 4 0l1-.9Z"/></svg>
